<svg width="237" height="32" viewBox="0 0 237 32" fill="none" xmlns="http://www.w3.org/2000/svg">
<path d="M190.149 31.6081L209.35 1.37207H217.85L236.976 31.6081H227.842L213.563 8.75399L199.47 31.6081H190.149Z" fill="#080E1E"/>
<path d="M188.397 1.37207L178.182 17.0307L188.397 31.6081H178.778L171.396 20.6098H155.85V31.6081H147.237V1.37207H155.85V13.0042H171.695L178.853 1.37207H188.397Z" fill="#080E1E"/>
<path d="M140.526 1.37207V31.6081H132.548L107.531 12.8551V31.6081H99.0681V1.37207H106.935L131.914 19.976V1.37207H140.526Z" fill="#080E1E"/>
<path d="M80.1282 1.37207H61.1515C53.4713 1.37207 47.2451 7.59824 47.2451 15.2784V17.7018C47.2451 25.382 53.4713 31.6081 61.1515 31.6081H80.1282C87.8084 31.6081 94.0346 25.382 94.0346 17.7018V15.2784C94.0346 7.59824 87.8084 1.37207 80.1282 1.37207ZM85.7206 17.2171C85.7206 21.1318 82.5516 24.3008 78.6369 24.3008H62.6055C58.6908 24.3008 55.5218 21.1318 55.5218 17.2171V15.7631C55.5218 11.8484 58.6908 8.67943 62.6055 8.67943H78.6742C82.5889 8.67943 85.7579 11.8484 85.7579 15.7631V17.2171H85.7206Z" fill="#080E1E"/>
<path d="M32.2511 16.658L30.7225 20.4608H8.76316V31.6083H0.300049V1.44678H8.72588V12.8179H30.6479L32.2511 16.658Z" fill="#1FC069"/>
<path d="M41.3852 16.6207L36.874 27.6563L35.2336 31.6083H26.1367L30.7224 20.4608L32.251 16.658L30.6479 12.8179L25.8757 1.44678H35.0472L36.7995 5.62241L41.3852 16.6207Z" fill="#1FC069"/>
<path fill-rule="evenodd" clip-rule="evenodd" d="M233.621 0.921905H232.875C231.494 0.921905 230.374 2.04164 230.374 3.42291C230.374 4.80418 231.494 5.92392 232.875 5.92392H233.621C235.002 5.92392 236.122 4.80418 236.122 3.42291C236.122 2.04164 235.002 0.921905 233.621 0.921905ZM232.875 0.253906C231.125 0.253906 229.706 1.67272 229.706 3.42291C229.706 5.17311 231.125 6.59192 232.875 6.59192H233.621C235.371 6.59192 236.79 5.17311 236.79 3.42291C236.79 1.67272 235.371 0.253906 233.621 0.253906H232.875Z" fill="#080E1E"/>
<path d="M234.98 4.87529C234.966 4.87595 234.956 4.8766 234.947 4.8766C234.73 4.8766 234.513 4.87595 234.297 4.87726C234.274 4.87726 234.262 4.86938 234.25 4.851C234.066 4.56212 233.881 4.27455 233.698 3.98567C233.685 3.96466 233.671 3.95678 233.646 3.95678C233.271 3.95744 232.896 3.95744 232.52 3.95744C232.508 3.95744 232.497 3.95744 232.482 3.95744C232.482 4.26404 232.482 4.56803 232.482 4.87398C232.27 4.87398 232.061 4.87398 231.85 4.87398C231.85 3.90623 231.85 2.93913 231.85 1.97007C231.86 1.96941 231.869 1.9681 231.877 1.9681C232.502 1.9681 233.128 1.96679 233.754 1.96941C233.97 1.97007 234.181 2.00356 234.38 2.09482C234.68 2.23269 234.85 2.46839 234.896 2.79469C234.923 2.98444 234.913 3.17286 234.847 3.35407C234.76 3.59371 234.587 3.75063 234.354 3.84582C234.335 3.8537 234.315 3.86093 234.292 3.86946C234.522 4.20496 234.75 4.53848 234.98 4.87529ZM232.483 3.41053C232.495 3.41119 232.504 3.41185 232.514 3.41185C232.908 3.41185 233.303 3.41316 233.698 3.41119C233.771 3.41053 233.844 3.40331 233.917 3.39149C234.009 3.37705 234.094 3.34291 234.162 3.2766C234.243 3.19847 234.267 3.09802 234.271 2.98969C234.28 2.77434 234.176 2.6299 233.969 2.57147C233.877 2.54521 233.782 2.5393 233.687 2.5393C233.298 2.5393 232.908 2.5393 232.519 2.5393C232.507 2.5393 232.496 2.5393 232.483 2.5393C232.483 2.83146 232.483 3.11903 232.483 3.41053Z" fill="#080E1E"/>
</svg>
